<svg xmlns="http://www.w3.org/2000/svg" width="28" height="20" fill="none" viewBox="0 0 28 20"><rect width="28" height="20" fill="#fff" rx="2"/><mask id="mask0" width="28" height="20" x="0" y="0" mask-type="alpha" maskUnits="userSpaceOnUse"><rect width="28" height="20" fill="#fff" rx="2"/></mask><g mask="url(#mask0)"><rect width="28" height="20" fill="#1537D1"/><rect width="14.667" height="20" x="13.333" fill="#EA3058"/><path fill="#FFCF3C" fill-rule="evenodd" d="M9.33334 20H18.6667V0H9.33334V20Z" clip-rule="evenodd"/><path fill="#FFEDB1" fill-rule="evenodd" d="M12.6667 8.66666H14V9.33333H12.6667V8.66666Z" clip-rule="evenodd"/><path stroke="#D32E28" stroke-width=".667" d="M12.3923 8.69435C12.3761 8.50001 12.5295 8.33333 12.7245 8.33333H15.2755C15.4705 8.33333 15.6238 8.50001 15.6076 8.69435L15.4364 10.7497C15.3932 11.268 14.9599 11.6667 14.4398 11.6667H13.5602C13.0401 11.6667 12.6068 11.268 12.5636 10.7497L12.3923 8.69435Z"/><path fill="#D32E28" fill-rule="evenodd" d="M12.6667 9.33333H15.3333V10H14.6667H13.3333H12.6667V9.33333Z" clip-rule="evenodd"/></g></svg>