<svg xmlns="http://www.w3.org/2000/svg" width="28" height="20" fill="none" viewBox="0 0 28 20"><rect width="28" height="20" fill="#fff" rx="2"/><mask id="mask0" width="28" height="20" x="0" y="0" mask-type="alpha" maskUnits="userSpaceOnUse"><rect width="28" height="20" fill="#fff" rx="2"/></mask><g mask="url(#mask0)"><rect width="28" height="20" fill="#E2243B"/><path fill="#262626" fill-rule="evenodd" d="M0 0H28L14 20L0 0Z" clip-rule="evenodd"/><mask id="mask1" width="28" height="20" x="0" y="0" mask-type="alpha" maskUnits="userSpaceOnUse"><path fill="#fff" fill-rule="evenodd" d="M0 0H28L14 20L0 0Z" clip-rule="evenodd"/></mask><g mask="url(#mask1)"><g filter="url(#filter0_d)"><path fill="#FFCF3C" fill-rule="evenodd" d="M14 11L11.7039 13.5433L11.8787 10.1213L8.45672 10.2961L11 8L8 5.33333L11.8787 6L11.3333 2L14 5.33333L16.6667 2L16.1213 6L20 5.33333L17 8L19.5433 10.2961L16.1213 10.1213L16.2961 13.5433L14 11Z" clip-rule="evenodd"/></g><g filter="url(#filter1_d)"><path fill="#1984D8" fill-rule="evenodd" d="M0 13.3333H28V8H0V13.3333Z" clip-rule="evenodd"/></g><path fill="#fff" fill-rule="evenodd" d="M0 20H28V13.3333H0V20Z" clip-rule="evenodd"/></g></g><defs><filter id="filter0_d" width="12" height="11.543" x="8" y="2" color-interpolation-filters="sRGB" filterUnits="userSpaceOnUse"><feFlood flood-opacity="0" result="BackgroundImageFix"/><feColorMatrix in="SourceAlpha" type="matrix" values="0 0 0 0 0 0 0 0 0 0 0 0 0 0 0 0 0 0 127 0"/><feOffset/><feColorMatrix type="matrix" values="0 0 0 0 0 0 0 0 0 0 0 0 0 0 0 0 0 0 0.06 0"/><feBlend in2="BackgroundImageFix" mode="normal" result="effect1_dropShadow"/><feBlend in="SourceGraphic" in2="effect1_dropShadow" mode="normal" result="shape"/></filter><filter id="filter1_d" width="28" height="5.333" x="0" y="8" color-interpolation-filters="sRGB" filterUnits="userSpaceOnUse"><feFlood flood-opacity="0" result="BackgroundImageFix"/><feColorMatrix in="SourceAlpha" type="matrix" values="0 0 0 0 0 0 0 0 0 0 0 0 0 0 0 0 0 0 127 0"/><feOffset/><feColorMatrix type="matrix" values="0 0 0 0 0 0 0 0 0 0 0 0 0 0 0 0 0 0 0.06 0"/><feBlend in2="BackgroundImageFix" mode="normal" result="effect1_dropShadow"/><feBlend in="SourceGraphic" in2="effect1_dropShadow" mode="normal" result="shape"/></filter></defs></svg>