<svg xmlns="http://www.w3.org/2000/svg" width="28" height="20" fill="none" viewBox="0 0 28 20"><rect width="27.5" height="19.5" x=".25" y=".25" fill="#fff" stroke="#F5F5F5" stroke-width=".5" rx="1.75"/><mask id="mask0" width="28" height="20" x="0" y="0" mask-type="alpha" maskUnits="userSpaceOnUse"><rect width="27.5" height="19.5" x=".25" y=".25" fill="#fff" stroke="#fff" stroke-width=".5" rx="1.75"/></mask><g mask="url(#mask0)"><rect width="6.667" height="20" x="10.667" fill="#D6182D"/><rect width="28" height="6.667" y="6.667" fill="#1425A2"/><path fill="#fff" fill-rule="evenodd" d="M11.3334 11.6667L10.8619 11.8047L11 11.3333L10.8619 10.8619L11.3334 11L11.8048 10.8619L11.6667 11.3333L11.8048 11.8047L11.3334 11.6667Z" clip-rule="evenodd"/><path fill="#fff" fill-rule="evenodd" d="M16.6667 11.6667L16.1953 11.8047L16.3333 11.3333L16.1953 10.8619L16.6667 11L17.1381 10.8619L17 11.3333L17.1381 11.8047L16.6667 11.6667Z" clip-rule="evenodd"/><path fill="#fff" fill-rule="evenodd" d="M8.66667 10.3333L8.19526 10.4714L8.33333 9.99999L8.19526 9.52859L8.66667 9.66666L9.13807 9.52859L9 9.99999L9.13807 10.4714L8.66667 10.3333Z" clip-rule="evenodd"/><path fill="#fff" fill-rule="evenodd" d="M19.3334 10.3333L18.8619 10.4714L19 9.99999L18.8619 9.52859L19.3334 9.66666L19.8048 9.52859L19.6667 9.99999L19.8048 10.4714L19.3334 10.3333Z" clip-rule="evenodd"/><path fill="#fff" fill-rule="evenodd" d="M14 9L13.5286 9.13807L13.6666 8.66667L13.5286 8.19526L14 8.33333L14.4714 8.19526L14.3333 8.66667L14.4714 9.13807L14 9Z" clip-rule="evenodd"/></g></svg>