<svg xmlns="http://www.w3.org/2000/svg" width="28" height="20" fill="none" viewBox="0 0 28 20"><rect width="28" height="20" fill="#fff" rx="2"/><mask id="mask0" width="28" height="20" x="0" y="0" mask-type="alpha" maskUnits="userSpaceOnUse"><rect width="28" height="20" fill="#fff" rx="2"/></mask><g mask="url(#mask0)"><rect width="28" height="20" fill="#05AB41"/><path fill="#FDD216" fill-rule="evenodd" d="M3.5317 10.5597C3.1257 10.297 3.1257 9.703 3.5317 9.44029L13.6379 2.90102C13.8582 2.75841 14.1418 2.75841 14.3622 2.90102L24.4683 9.44029C24.8743 9.703 24.8743 10.297 24.4683 10.5597L14.3622 17.099C14.1418 17.2416 13.8582 17.2416 13.6379 17.099L3.5317 10.5597Z" clip-rule="evenodd"/><path fill="#053087" fill-rule="evenodd" d="M14 14.6667C16.5773 14.6667 18.6666 12.5773 18.6666 9.99999C18.6666 7.42267 16.5773 5.33333 14 5.33333C11.4227 5.33333 9.33331 7.42267 9.33331 9.99999C9.33331 12.5773 11.4227 14.6667 14 14.6667Z" clip-rule="evenodd"/><mask id="mask1" width="10" height="10" x="9" y="5" mask-type="alpha" maskUnits="userSpaceOnUse"><path fill="#fff" fill-rule="evenodd" d="M14 14.6667C16.5773 14.6667 18.6666 12.5773 18.6666 9.99999C18.6666 7.42267 16.5773 5.33333 14 5.33333C11.4227 5.33333 9.33331 7.42267 9.33331 9.99999C9.33331 12.5773 11.4227 14.6667 14 14.6667Z" clip-rule="evenodd"/></mask><g mask="url(#mask1)"><path stroke="#fff" stroke-linecap="square" stroke-width="1.333" d="M8.77993 8.78025C9.51263 8.18692 11.877 8.74899 14.084 9.33774C16.2911 9.92648 18.593 11.1605 19.1791 11.8843"/></g></g></svg>