<svg xmlns="http://www.w3.org/2000/svg" width="28" height="20" fill="none" viewBox="0 0 28 20"><rect width="28" height="20" fill="#fff" rx="2"/><mask id="mask0" width="28" height="20" x="0" y="0" mask-type="alpha" maskUnits="userSpaceOnUse"><rect width="28" height="20" fill="#fff" rx="2"/></mask><g mask="url(#mask0)"><path fill="#E54252" fill-rule="evenodd" d="M0 13.3333H28V0H0V13.3333Z" clip-rule="evenodd"/><path fill="#5CBE6B" fill-rule="evenodd" d="M0 20H28V13.3333H0V20Z" clip-rule="evenodd"/><path fill="#fff" fill-rule="evenodd" d="M0 0H4V3L3.33333 4L4 5V7L3.33333 8L4 9V11L3.33333 12L4 13V15L3.33333 16L4 17V20H0V0Z" clip-rule="evenodd"/><path fill="#E54252" fill-rule="evenodd" d="M-0.666667 2L-2 4L-0.666667 6L-2 8L-0.666667 10L-2 12L-0.666667 14L-2 16L-0.666667 18L0.666667 16L-0.666667 14L0.666667 12L-0.666667 10L0.666667 8L-0.666667 6L0.666667 4L-0.666667 2Z" clip-rule="evenodd"/><path fill="#E54252" fill-rule="evenodd" d="M0.666687 2L2.00002 0L3.33335 2L2.00002 4L0.666687 2ZM2.00002 8L0.666687 6L2.00002 4L3.33335 6L2.00002 8ZM2.00002 12L0.666687 10L2.00002 8L3.33335 10L2.00002 12ZM2.00002 16L3.33335 14L2.00002 12L0.666687 14L2.00002 16ZM2.00002 16L3.33335 18L2.00002 20L0.666687 18L2.00002 16Z" clip-rule="evenodd"/></g></svg>