<svg xmlns="http://www.w3.org/2000/svg" width="28" height="20" fill="none" viewBox="0 0 28 20"><rect width="28" height="20" fill="#fff" rx="2"/><mask id="mask0" width="28" height="20" x="0" y="0" mask-type="alpha" maskUnits="userSpaceOnUse"><rect width="28" height="20" fill="#fff" rx="2"/></mask><g mask="url(#mask0)"><path fill="#094995" fill-rule="evenodd" d="M0 17.3333H28V2.66667H0V17.3333Z" clip-rule="evenodd"/><path fill="#D5182F" fill-rule="evenodd" d="M0 2.66667H28V0H0V2.66667Z" clip-rule="evenodd"/><path fill="#D5182F" fill-rule="evenodd" d="M0 20H28V17.3333H0V20Z" clip-rule="evenodd"/><path fill="#fff" fill-rule="evenodd" d="M14 16C17.3137 16 20 13.3137 20 10C20 6.68629 17.3137 4 14 4C10.6863 4 8 6.68629 8 10C8 13.3137 10.6863 16 14 16Z" clip-rule="evenodd"/><path fill-rule="evenodd" stroke="#118014" stroke-dasharray=".67 2" stroke-linecap="round" stroke-width="1.333" d="M14 14C16.2091 14 18 12.2091 18 10C18 7.79086 16.2091 6 14 6C11.7909 6 10 7.79086 10 10C10 12.2091 11.7909 14 14 14Z" clip-rule="evenodd"/></g></svg>