<svg xmlns="http://www.w3.org/2000/svg" width="28" height="20" fill="none" viewBox="0 0 28 20"><rect width="27.5" height="19.5" x=".25" y=".25" fill="#fff" stroke="#F5F5F5" stroke-width=".5" rx="1.75"/><mask id="mask0" width="28" height="20" x="0" y="0" mask-type="alpha" maskUnits="userSpaceOnUse"><rect width="27.5" height="19.5" x=".25" y=".25" fill="#fff" stroke="#fff" stroke-width=".5" rx="1.75"/></mask><g mask="url(#mask0)"><path fill="#083D96" fill-rule="evenodd" d="M0 5.33333H28V0H0V5.33333Z" clip-rule="evenodd"/><path fill="#37AE39" fill-rule="evenodd" d="M0 14.6667H28V9.33334H0V14.6667Z" clip-rule="evenodd"/><path fill="#FFD13F" fill-rule="evenodd" d="M0 20H28V14.6667H0V20Z" clip-rule="evenodd"/><path fill="#E42346" fill-rule="evenodd" d="M10.6667 20H17.3333V0H10.6667V20Z" clip-rule="evenodd"/><path fill="#FFD03B" fill-rule="evenodd" d="M4.66667 3.44666L3.4911 4.28469L3.92485 2.90769L2.76456 2.04862L4.2082 2.03562L4.66667 0.666656L5.12514 2.03562L6.56878 2.04862L5.4085 2.90769L5.84224 4.28469L4.66667 3.44666Z" clip-rule="evenodd"/></g></svg>