<svg xmlns="http://www.w3.org/2000/svg" width="28" height="20" fill="none" viewBox="0 0 28 20"><rect width="27.5" height="19.5" x=".25" y=".25" fill="#fff" stroke="#F5F5F5" stroke-width=".5" rx="1.75"/><mask id="mask0" width="28" height="20" x="0" y="0" mask-type="alpha" maskUnits="userSpaceOnUse"><rect width="27.5" height="19.5" x=".25" y=".25" fill="#fff" stroke="#fff" stroke-width=".5" rx="1.75"/></mask><g mask="url(#mask0)"><path fill="#0B389F" fill-rule="evenodd" d="M0 4H28V0H0V4Z" clip-rule="evenodd"/><path fill="#0B389F" fill-rule="evenodd" d="M0 12H28V8H0V12Z" clip-rule="evenodd"/><path fill="#0B389F" fill-rule="evenodd" d="M0 20H28V16H0V20Z" clip-rule="evenodd"/><path fill="#E12A43" fill-rule="evenodd" d="M0 0L13.3333 10L0 20V0Z" clip-rule="evenodd"/><path fill="#fff" fill-rule="evenodd" d="M4.66667 11.0227L3.09924 12.1574L3.69403 10.316L2.13052 9.17596L4.06555 9.17264L4.66667 7.33334L5.26779 9.17264L7.20282 9.17596L5.6393 10.316L6.23409 12.1574L4.66667 11.0227Z" clip-rule="evenodd"/></g></svg>