<svg xmlns="http://www.w3.org/2000/svg" width="28" height="20" fill="none" viewBox="0 0 28 20"><rect width="27.5" height="19.5" x=".25" y=".25" fill="#fff" stroke="#F5F5F5" stroke-width=".5" rx="1.75"/><mask id="mask0" width="28" height="20" x="0" y="0" mask-type="alpha" maskUnits="userSpaceOnUse"><rect width="27.5" height="19.5" x=".25" y=".25" fill="#fff" stroke="#fff" stroke-width=".5" rx="1.75"/></mask><g mask="url(#mask0)"><path fill="#EF264D" fill-rule="evenodd" d="M2 0C0.895431 0 0 0.895431 0 2V8H8V0H2ZM12 0V8H28V2C28 0.895431 27.1046 0 26 0H12ZM28 12H12V20H26C27.1046 20 28 19.1046 28 18V12ZM8 20V12H0V18C0 19.1046 0.895431 20 2 20H8Z" clip-rule="evenodd"/></g></svg>