<svg xmlns="http://www.w3.org/2000/svg" width="28" height="20" fill="none" viewBox="0 0 28 20"><rect width="27.5" height="19.5" x=".25" y=".25" fill="#fff" stroke="#F5F5F5" stroke-width=".5" rx="1.75"/><mask id="mask0" width="28" height="20" x="0" y="0" mask-type="alpha" maskUnits="userSpaceOnUse"><rect width="27.5" height="19.5" x=".25" y=".25" fill="#fff" stroke="#fff" stroke-width=".5" rx="1.75"/></mask><g mask="url(#mask0)"><path fill="#048345" fill-rule="evenodd" d="M0 20H14.6667V0H0V20Z" clip-rule="evenodd"/><path fill="#E81B42" fill-rule="evenodd" d="M17.3333 11.04L15.7659 12.1574L16.3442 10.3214L14.7972 9.17596L16.722 9.15863L17.3333 7.33334L17.9446 9.15863L19.8695 9.17596L18.3224 10.3214L18.9008 12.1574L17.3333 11.04Z" clip-rule="evenodd"/><path fill="#E81B42" fill-rule="evenodd" d="M17.68 14.3813C16.6519 15.3853 15.2702 16 13.7509 16C10.5748 16 8 13.3137 8 10C8 6.68629 10.5748 4 13.7509 4C15.2702 4 16.6519 4.61468 17.68 5.61867C16.9709 5.28113 16.1688 5.09091 15.3193 5.09091C12.4319 5.09091 10.0912 7.28878 10.0912 10C10.0912 12.7112 12.4319 14.9091 15.3193 14.9091C16.1688 14.9091 16.9709 14.7189 17.68 14.3813Z" clip-rule="evenodd"/></g></svg>