<svg xmlns="http://www.w3.org/2000/svg" width="28" height="20" fill="none" viewBox="0 0 28 20"><rect width="28" height="20" fill="#fff" rx="2"/><mask id="mask0" width="28" height="20" x="0" y="0" mask-type="alpha" maskUnits="userSpaceOnUse"><rect width="28" height="20" fill="#fff" rx="2"/></mask><g mask="url(#mask0)"><path fill="#0748AE" fill-rule="evenodd" d="M0 14.6667H28V9.33334H0V14.6667Z" clip-rule="evenodd"/><path fill="#DE2035" fill-rule="evenodd" d="M0 20H28V14.6667H0V20Z" clip-rule="evenodd"/><path fill="#FFD935" fill-rule="evenodd" d="M0 9.33333H28V0H0V9.33333Z" clip-rule="evenodd"/><path fill="#FFD935" fill-rule="evenodd" d="M12.3999 8C11.7523 8.48651 11.3333 9.26108 11.3333 10.1335C11.3333 11.6062 12.5272 12.8002 14 12.8002C15.4728 12.8002 16.6667 11.6062 16.6667 10.1335C16.6667 9.26108 16.2477 8.48651 15.6 8L14.6667 10.8002H13.3333L12.3999 8Z" clip-rule="evenodd"/><path fill="#5FC0DC" fill-rule="evenodd" d="M14 7.33334L14.6667 10.6667H13.3333L14 7.33334Z" clip-rule="evenodd"/><path stroke="#3F2821" stroke-linecap="round" stroke-linejoin="round" stroke-width=".667" d="M17.3333 6.00001L15.3333 5.33334L14 6.66668L12.6667 5.33334L10.6667 6.00001" opacity=".66"/></g></svg>