<svg xmlns="http://www.w3.org/2000/svg" width="28" height="20" fill="none" viewBox="0 0 28 20"><rect width="28" height="20" fill="#fff" rx="2"/><mask id="mask0" width="28" height="20" x="0" y="0" mask-type="alpha" maskUnits="userSpaceOnUse"><rect width="28" height="20" fill="#fff" rx="2"/></mask><g mask="url(#mask0)"><path fill="#DD172C" fill-rule="evenodd" d="M0 5.33333H28V0H0V5.33333Z" clip-rule="evenodd"/><path fill="#DD172C" fill-rule="evenodd" d="M0 20H28V14.6667H0V20Z" clip-rule="evenodd"/><path fill="#FFD133" fill-rule="evenodd" d="M0 14.6667H28V5.33334H0V14.6667Z" clip-rule="evenodd"/><path fill="#FFEDB1" fill-rule="evenodd" d="M7.33334 9.33333H8.66668V10H7.33334V9.33333Z" clip-rule="evenodd"/><path stroke="#A41517" stroke-width=".667" d="M6.05901 9.36101C6.04281 9.16667 6.19618 8.99999 6.39119 8.99999H8.27546C8.47047 8.99999 8.62383 9.16666 8.60764 9.36101L8.43636 11.4164C8.39317 11.9347 7.9599 12.3333 7.43981 12.3333H7.22683C6.70675 12.3333 6.27348 11.9347 6.23029 11.4164L6.05901 9.36101Z"/><path fill="#A41517" fill-rule="evenodd" d="M6 10H8.66667V10.6667H8L7.33333 12L6.66667 10.6667H6V10Z" clip-rule="evenodd"/><rect width="1.333" height="4.667" x="4" y="8" fill="#A41517" rx=".667"/><rect width="1.333" height="4.667" x="9.333" y="8" fill="#A41517" rx=".667"/><path fill="#A41517" d="M6 7.73332C6 7.14422 6.47756 6.66666 7.06667 6.66666H7.6C8.1891 6.66666 8.66667 7.14422 8.66667 7.73332C8.66667 7.8806 8.54728 7.99999 8.4 7.99999H6.26667C6.11939 7.99999 6 7.8806 6 7.73332Z"/></g></svg>