<svg xmlns="http://www.w3.org/2000/svg" width="28" height="20" fill="none" viewBox="0 0 28 20"><rect width="27.5" height="19.5" x=".25" y=".25" fill="#fff" stroke="#F5F5F5" stroke-width=".5" rx="1.75"/><mask id="mask0" width="28" height="20" x="0" y="0" mask-type="alpha" maskUnits="userSpaceOnUse"><rect width="27.5" height="19.5" x=".25" y=".25" fill="#fff" stroke="#fff" stroke-width=".5" rx="1.75"/></mask><g mask="url(#mask0)"><path fill="#E34F4F" fill-rule="evenodd" d="M0 20H28V13.3333H0V20Z" clip-rule="evenodd"/><path fill="#E34F4F" fill-rule="evenodd" d="M9.33331 13.3333H17.3333V8H9.33331V13.3333Z" clip-rule="evenodd"/><path fill="#181A1A" fill-rule="evenodd" d="M10.6667 13.3333H12V12H10.6667V13.3333Z" clip-rule="evenodd"/><path fill="#181A1A" fill-rule="evenodd" d="M14.6667 13.3333H16V12H14.6667V13.3333Z" clip-rule="evenodd"/><path fill="#181A1A" fill-rule="evenodd" d="M9.33331 7.99999H10.6666V6.66666H9.33331V7.99999Z" clip-rule="evenodd"/><path fill="#181A1A" fill-rule="evenodd" d="M13.3333 7.99999H14.6666V6.66666H13.3333V7.99999Z" clip-rule="evenodd"/><path fill="#181A1A" fill-rule="evenodd" d="M12 7.99999H13.3333V6.66666H12V7.99999Z" clip-rule="evenodd"/><path fill="#181A1A" fill-rule="evenodd" d="M16 7.99999H17.3333V6.66666H16V7.99999Z" clip-rule="evenodd"/><path fill="#E34F4F" fill-rule="evenodd" d="M9.33331 6.66668H10.6666V5.33334H9.33331V6.66668Z" clip-rule="evenodd"/><path fill="#E34F4F" fill-rule="evenodd" d="M13.3333 6.66668H14.6666V5.33334H13.3333V6.66668Z" clip-rule="evenodd"/><path fill="#E34F4F" fill-rule="evenodd" d="M12 6.66668H13.3333V5.33334H12V6.66668Z" clip-rule="evenodd"/><path fill="#E34F4F" fill-rule="evenodd" d="M16 6.66668H17.3333V5.33334H16V6.66668Z" clip-rule="evenodd"/></g></svg>