<svg xmlns="http://www.w3.org/2000/svg" width="28" height="20" fill="none" viewBox="0 0 28 20"><rect width="27.5" height="19.5" x=".25" y=".25" fill="#fff" stroke="#F5F5F5" stroke-width=".5" rx="1.75"/><mask id="mask0" width="28" height="20" x="0" y="0" mask-type="alpha" maskUnits="userSpaceOnUse"><rect width="27.5" height="19.5" x=".25" y=".25" fill="#fff" stroke="#fff" stroke-width=".5" rx="1.75"/></mask><g mask="url(#mask0)"><path fill="#FF202D" fill-rule="evenodd" d="M0 6.66667H28V0H0V6.66667Z" clip-rule="evenodd"/><path fill="#1895DB" fill-rule="evenodd" d="M10.6667 5.33335L11.3333 4.66669L12 5.33335V6.66669H10.6667V5.33335ZM13.3333 5.33335L14 4.66669L14.6667 5.33335V6.66669H13.3333V5.33335ZM16.6667 4.66669L16 5.33335V6.66669H17.3333V5.33335L16.6667 4.66669Z" clip-rule="evenodd" opacity=".5"/><path fill="#191F94" fill-rule="evenodd" d="M12.6667 4.66669L12 5.33335V6.66669H13.3333V5.33335L12.6667 4.66669ZM15.3333 4.66669L14.6667 5.33335V6.66669H16V5.33335L15.3333 4.66669Z" clip-rule="evenodd" opacity=".5"/><path fill="#2027AC" fill-rule="evenodd" d="M0 20H28V13.3333H0V20Z" clip-rule="evenodd"/><path fill="url(#paint0_linear)" fill-rule="evenodd" d="M12 6.66669H11.3333L10.6667 8.00002H12V9.33335H10.6667V10.6667H12V12H10.6667V13.3334H12V14.6667H13.3333V13.3334H14.6667V14.6667H16V13.3334H17.3333V12H16V10.6667H17.3333V9.33335H16V8.00002H17.3333L16.6667 6.66669H16V8.00002H14.6667V6.66669H13.3333V8.00002H12V6.66669ZM13.3333 9.33335V8.00002H14.6667V9.33335H13.3333ZM13.3333 10.6667V9.33335H12V10.6667H13.3333ZM14.6667 10.6667H13.3333V12H12V13.3334H13.3333V12H14.6667V13.3334H16V12H14.6667V10.6667ZM14.6667 10.6667H16V9.33335H14.6667V10.6667Z" clip-rule="evenodd"/></g><defs><linearGradient id="paint0_linear" x1="10.667" x2="10.667" y1="6.667" y2="14.667" gradientUnits="userSpaceOnUse"><stop stop-color="#FF212E"/><stop offset="1" stop-color="#FD0D1B"/></linearGradient></defs></svg>