<svg xmlns="http://www.w3.org/2000/svg" width="28" height="20" fill="none" viewBox="0 0 28 20"><rect width="27.5" height="19.5" x=".25" y=".25" fill="#fff" stroke="#F5F5F5" stroke-width=".5" rx="1.75"/><mask id="mask0" width="28" height="20" x="0" y="0" mask-type="alpha" maskUnits="userSpaceOnUse"><rect width="27.5" height="19.5" x=".25" y=".25" fill="#fff" stroke="#fff" stroke-width=".5" rx="1.75"/></mask><g mask="url(#mask0)"><path fill="#0E46D4" fill-rule="evenodd" d="M0 4H28V0H0V4Z" clip-rule="evenodd"/><path fill="#0E46D4" fill-rule="evenodd" d="M0 20H28V16H0V20Z" clip-rule="evenodd"/><path stroke="#093EC5" stroke-width=".667" d="M10.3753 11.8381L10.1002 12.3333L10.6667 12.3333L17.3333 12.3333L17.8998 12.3333L17.6247 11.8381L14.2914 5.8381L14 5.31361L13.7086 5.8381L10.3753 11.8381Z"/><path stroke="#093EC5" stroke-width=".667" d="M10.3753 8.1619L10.1002 7.66668L10.6667 7.66668L17.3333 7.66668L17.8998 7.66668L17.6247 8.1619L14.2914 14.1619L14 14.6864L13.7086 14.1619L10.3753 8.1619Z"/></g></svg>