<svg xmlns="http://www.w3.org/2000/svg" width="28" height="20" fill="none" viewBox="0 0 28 20"><rect width="27.5" height="19.5" x=".25" y=".25" fill="#fff" stroke="#F5F5F5" stroke-width=".5" rx="1.75"/><mask id="mask0" width="28" height="20" x="0" y="0" mask-type="alpha" maskUnits="userSpaceOnUse"><rect width="27.5" height="19.5" x=".25" y=".25" fill="#fff" stroke="#fff" stroke-width=".5" rx="1.75"/></mask><g mask="url(#mask0)"><rect width="2.667" height="49.333" x="-6.311" y="-2.583" fill="#E3243B" transform="rotate(-55 -6.31149 -2.58282)"/><rect width="2.667" height="49.333" fill="#E3243B" transform="matrix(-0.573576 -0.819152 -0.819152 0.573576 35.6295 -2.58282)"/><path fill="#FAEF32" fill-rule="evenodd" d="M15.7408 2.66665H13.5925L13.6798 2.61544L12.693 2.04561L13.9689 2.18807L13.7895 1.33331L14.6666 2.04561L15.5438 1.33331L15.3644 2.18807L16.6403 2.04561L15.6535 2.61544L15.7408 2.66665Z" clip-rule="evenodd"/><path fill="#E3243B" fill-rule="evenodd" d="M12.6667 5.16663C12.6667 4.79582 12.6667 4.38224 12.6667 3.9999C12.6667 3.26352 13.2636 2.66663 14 2.66663H15.3333C16.0697 2.66663 16.6667 3.26352 16.6667 3.9999C16.6667 4.38224 16.6667 4.79582 16.6667 5.16663C16.6667 6.95234 14.6667 7.66663 14.6667 7.66663C14.6667 7.66663 12.6667 6.95234 12.6667 5.16663Z" clip-rule="evenodd"/><mask id="mask1" width="5" height="6" x="12" y="2" mask-type="alpha" maskUnits="userSpaceOnUse"><path fill="#fff" fill-rule="evenodd" d="M12.6667 5.16663C12.6667 4.79582 12.6667 4.38224 12.6667 3.9999C12.6667 3.26352 13.2636 2.66663 14 2.66663H15.3333C16.0697 2.66663 16.6667 3.26352 16.6667 3.9999C16.6667 4.38224 16.6667 4.79582 16.6667 5.16663C16.6667 6.95234 14.6667 7.66663 14.6667 7.66663C14.6667 7.66663 12.6667 6.95234 12.6667 5.16663Z" clip-rule="evenodd"/></mask><g mask="url(#mask1)"><rect width=".667" height=".667" x="14.333" y="6.667" fill="#FAEF32" rx=".333"/><rect width="2.667" height=".667" x="13.333" y="5.333" fill="#FAEF32" rx=".333"/><rect width="2.667" height=".667" x="13.333" y="4" fill="#FAEF32" rx=".333"/></g></g></svg>