<svg xmlns="http://www.w3.org/2000/svg" width="28" height="20" fill="none" viewBox="0 0 28 20"><rect width="27.5" height="19.5" x=".25" y=".25" fill="#fff" stroke="#F5F5F5" stroke-width=".5" rx="1.75"/><mask id="mask0" width="28" height="20" x="0" y="0" mask-type="alpha" maskUnits="userSpaceOnUse"><rect width="27.5" height="19.5" x=".25" y=".25" fill="#fff" stroke="#fff" stroke-width=".5" rx="1.75"/></mask><g mask="url(#mask0)"><path fill="#199E56" fill-rule="evenodd" d="M0 20H28V13.3333H0V20Z" clip-rule="evenodd"/><path fill="#262626" fill-rule="evenodd" d="M0 6.66667H28V0H0V6.66667Z" clip-rule="evenodd"/><path fill="#E6223A" fill-rule="evenodd" d="M0 0L13.3333 10L0 20V0Z" clip-rule="evenodd"/><path fill="#fff" fill-rule="evenodd" d="M4.66666 11L3.79889 11.8019L3.88482 10.6235L2.7168 10.445L3.69173 9.77748L3.10299 8.75302L4.23277 9.09903L4.66666 8L5.10054 9.09903L6.23032 8.75302L5.64158 9.77748L6.61651 10.445L5.44849 10.6235L5.53442 11.8019L4.66666 11Z" clip-rule="evenodd"/></g></svg>