<svg xmlns="http://www.w3.org/2000/svg" width="28" height="20" fill="none" viewBox="0 0 28 20"><rect width="27.5" height="19.5" x=".25" y=".25" fill="#fff" stroke="#F5F5F5" stroke-width=".5" rx="1.75"/><mask id="mask0" width="28" height="20" x="0" y="0" mask-type="alpha" maskUnits="userSpaceOnUse"><rect width="27.5" height="19.5" x=".25" y=".25" fill="#fff" stroke="#fff" stroke-width=".5" rx="1.75"/></mask><g mask="url(#mask0)"><path fill="#E1244A" fill-rule="evenodd" d="M28 0H13.3333V2.66667H28V0ZM28 5.33333H13.3333V8H28V5.33333ZM13.3333 10.6667H28V13.3333H13.3333V10.6667ZM28 16H0V18.6667H28V16Z" clip-rule="evenodd"/><rect width="13.333" height="13.333" fill="#0C3F8E"/><path fill="#fff" fill-rule="evenodd" d="M6.66666 8.22669L4.31552 9.90275L5.18301 7.14875L2.86243 5.43062L5.74971 5.40462L6.66666 2.66669L7.5836 5.40462L10.4709 5.43062L8.1503 7.14875L9.0178 9.90275L6.66666 8.22669Z" clip-rule="evenodd"/></g></svg>