<svg xmlns="http://www.w3.org/2000/svg" width="28" height="20" fill="none" viewBox="0 0 28 20"><rect width="27.5" height="19.5" x=".25" y=".25" fill="#fff" stroke="#F5F5F5" stroke-width=".5" rx="1.75"/><mask id="mask0" width="28" height="20" x="0" y="0" mask-type="alpha" maskUnits="userSpaceOnUse"><rect width="27.5" height="19.5" x=".25" y=".25" fill="#fff" stroke="#fff" stroke-width=".5" rx="1.75"/></mask><g mask="url(#mask0)"><path fill="#DE233C" fill-rule="evenodd" d="M14.6667 20H28V0H14.6667V20Z" clip-rule="evenodd"/><mask id="path-4-outside-1" width="6" height="6" x="1.667" y="1.667" fill="#000" maskUnits="userSpaceOnUse"><rect width="6" height="6" x="1.667" y="1.667" fill="#fff"/><path fill-rule="evenodd" d="M5.33335 2.66669H4.00002V4.00002H2.66669V5.33335H4.00002V6.66669H5.33335V5.33335H6.66669V4.00002H5.33335V2.66669Z" clip-rule="evenodd"/></mask><path fill="#CCCCCD" fill-rule="evenodd" d="M5.33335 2.66669H4.00002V4.00002H2.66669V5.33335H4.00002V6.66669H5.33335V5.33335H6.66669V4.00002H5.33335V2.66669Z" clip-rule="evenodd"/><path fill="#7B716A" fill-opacity=".66" d="M4.00002 2.66669V2.00002H3.33335V2.66669H4.00002ZM5.33335 2.66669H6.00002V2.00002H5.33335V2.66669ZM4.00002 4.00002V4.66669H4.66669V4.00002H4.00002ZM2.66669 4.00002V3.33335H2.00002V4.00002H2.66669ZM2.66669 5.33335H2.00002V6.00002H2.66669V5.33335ZM4.00002 5.33335H4.66669V4.66669H4.00002V5.33335ZM4.00002 6.66669H3.33335V7.33335H4.00002V6.66669ZM5.33335 6.66669V7.33335H6.00002V6.66669H5.33335ZM5.33335 5.33335V4.66669H4.66669V5.33335H5.33335ZM6.66669 5.33335V6.00002H7.33335V5.33335H6.66669ZM6.66669 4.00002H7.33335V3.33335H6.66669V4.00002ZM5.33335 4.00002H4.66669V4.66669H5.33335V4.00002ZM4.00002 3.33335H5.33335V2.00002H4.00002V3.33335ZM4.66669 4.00002V2.66669H3.33335V4.00002H4.66669ZM2.66669 4.66669H4.00002V3.33335H2.66669V4.66669ZM3.33335 5.33335V4.00002H2.00002V5.33335H3.33335ZM4.00002 4.66669H2.66669V6.00002H4.00002V4.66669ZM4.66669 6.66669V5.33335H3.33335V6.66669H4.66669ZM5.33335 6.00002H4.00002V7.33335H5.33335V6.00002ZM4.66669 5.33335V6.66669H6.00002V5.33335H4.66669ZM6.66669 4.66669H5.33335V6.00002H6.66669V4.66669ZM6.00002 4.00002V5.33335H7.33335V4.00002H6.00002ZM5.33335 4.66669H6.66669V3.33335H5.33335V4.66669ZM4.66669 2.66669V4.00002H6.00002V2.66669H4.66669Z" mask="url(#path-4-outside-1)"/><path fill="#7B716A" fill-rule="evenodd" d="M4.66667 5.33333C5.03486 5.33333 5.33333 5.03486 5.33333 4.66667C5.33333 4.29848 5.03486 4 4.66667 4C4.29848 4 4 4.29848 4 4.66667C4 5.03486 4.29848 5.33333 4.66667 5.33333Z" clip-rule="evenodd"/></g></svg>