<svg xmlns="http://www.w3.org/2000/svg" width="28" height="20" fill="none" viewBox="0 0 28 20"><rect width="27.5" height="19.5" x=".25" y=".25" fill="#fff" stroke="#F5F5F5" stroke-width=".5" rx="1.75"/><mask id="mask0" width="28" height="20" x="0" y="0" mask-type="alpha" maskUnits="userSpaceOnUse"><rect width="27.5" height="19.5" x=".25" y=".25" fill="#fff" stroke="#fff" stroke-width=".5" rx="1.75"/></mask><g mask="url(#mask0)"><rect width="9.333" height="20" x="18.667" fill="#E3283E"/><path fill="#128A60" fill-rule="evenodd" d="M0 20H9.33333V0H0V20Z" clip-rule="evenodd"/><path fill="#8C9157" d="M12 9.33331C12 8.96512 11.7015 8.66665 11.3333 8.66665C10.9651 8.66665 10.6666 8.96512 10.6666 9.33331H12ZM12.329 12.2181C12.6475 12.4029 13.0554 12.2945 13.2402 11.976C13.425 11.6576 13.3166 11.2496 12.9982 11.0648L12.329 12.2181ZM15.0756 11.0198C14.7655 11.2182 14.6748 11.6305 14.8732 11.9406C15.0716 12.2508 15.4839 12.3414 15.794 12.1431L15.0756 11.0198ZM17.3333 9.33331C17.3333 8.96512 17.0348 8.66665 16.6666 8.66665C16.2985 8.66665 16 8.96512 16 9.33331H17.3333ZM10.6666 9.33331C10.6666 10.5664 11.3365 11.6422 12.329 12.2181L12.9982 11.0648C12.3999 10.7177 12 10.0718 12 9.33331H10.6666ZM15.794 12.1431C16.7182 11.552 17.3333 10.5147 17.3333 9.33331H16C16 10.041 15.6329 10.6634 15.0756 11.0198L15.794 12.1431Z"/><path fill="#C59262" fill-rule="evenodd" d="M14 10.6667C14.7364 10.6667 15.3334 9.77126 15.3334 8.66669C15.3334 7.56212 14.7364 6.66669 14 6.66669C13.2636 6.66669 12.6667 7.56212 12.6667 8.66669C12.6667 9.77126 13.2636 10.6667 14 10.6667Z" clip-rule="evenodd"/></g></svg>