<svg xmlns="http://www.w3.org/2000/svg" width="28" height="20" fill="none" viewBox="0 0 28 20"><rect width="28" height="20" fill="#fff" rx="2"/><mask id="mask0" width="28" height="20" x="0" y="0" mask-type="alpha" maskUnits="userSpaceOnUse"><rect width="28" height="20" fill="#fff" rx="2"/></mask><g mask="url(#mask0)"><path fill="#FFE547" fill-rule="evenodd" d="M0 20H28V14.6667H0V20Z" clip-rule="evenodd"/><path fill="#118C81" fill-rule="evenodd" d="M0 5.33333H28V0H0V5.33333Z" clip-rule="evenodd"/><path fill="#fff" fill-rule="evenodd" d="M0 14.6666H28V5.33331H0V14.6666Z" clip-rule="evenodd"/><path fill="#262626" fill-rule="evenodd" d="M0 13.3334H28V6.66669H0V13.3334Z" clip-rule="evenodd"/><path fill="#EF2147" fill-rule="evenodd" d="M0 0L13.3333 10L0 20V0Z" clip-rule="evenodd"/><path fill="#FDE444" fill-rule="evenodd" d="M4.66665 11.2741L2.70736 12.6967L3.45492 10.3937L1.49646 8.96996L3.91776 8.96927L4.66665 6.66669L5.41553 8.96927L7.83683 8.96996L5.87837 10.3937L6.62593 12.6967L4.66665 11.2741Z" clip-rule="evenodd"/></g></svg>