<svg xmlns="http://www.w3.org/2000/svg" width="28" height="20" fill="none" viewBox="0 0 28 20"><rect width="28" height="20" fill="#fff" rx="2"/><mask id="mask0" width="28" height="20" x="0" y="0" mask-type="alpha" maskUnits="userSpaceOnUse"><rect width="28" height="20" fill="#fff" rx="2"/></mask><g mask="url(#mask0)"><path fill="#0C4799" fill-rule="evenodd" d="M0 13.3333L28 0H0V13.3333Z" clip-rule="evenodd"/><path fill="#FFD243" fill-rule="evenodd" d="M4.66667 6L3.64618 7.13035L3.72386 5.60948L2.20299 5.68716L3.33333 4.66667L2.20299 3.64618L3.72386 3.72386L3.64618 2.20299L4.66667 3.33333L5.68716 2.20299L5.60948 3.72386L7.13035 3.64618L6 4.66667L7.13035 5.68716L5.60948 5.60948L5.68716 7.13035L4.66667 6Z" clip-rule="evenodd"/><path fill="#1BAC55" fill-rule="evenodd" d="M0 20H28V6.66669L0 20Z" clip-rule="evenodd"/><path fill="#fff" fill-rule="evenodd" d="M3.08239 22.6667L30.1707 5.74004L24.9176 -2.66669L-2.17072 14.26L3.08239 22.6667Z" clip-rule="evenodd"/><path fill="#E52347" fill-rule="evenodd" d="M-0.629192 23.0719L32.162 2.58169L28.6292 -3.07196L-4.16199 17.4183L-0.629192 23.0719Z" clip-rule="evenodd"/></g></svg>