<svg xmlns="http://www.w3.org/2000/svg" width="28" height="20" fill="none" viewBox="0 0 28 20"><rect width="27.5" height="19.5" x=".25" y=".25" fill="#fff" stroke="#F5F5F5" stroke-width=".5" rx="1.75"/><mask id="mask0" width="28" height="20" x="0" y="0" mask-type="alpha" maskUnits="userSpaceOnUse"><rect width="27.5" height="19.5" x=".25" y=".25" fill="#fff" stroke="#fff" stroke-width=".5" rx="1.75"/></mask><g mask="url(#mask0)"><path fill="#1A78D6" fill-rule="evenodd" d="M0 6.66667H28V0H0V6.66667Z" clip-rule="evenodd"/><path fill="#1A78D6" fill-rule="evenodd" d="M0 20H28V13.3333H0V20Z" clip-rule="evenodd"/><path stroke="#DBCD92" stroke-width=".667" d="M14 12.3333C15.2887 12.3333 16.3333 11.2887 16.3333 10C16.3333 8.71134 15.2887 7.66667 14 7.66667C12.7113 7.66667 11.6667 8.71134 11.6667 10C11.6667 11.2887 12.7113 12.3333 14 12.3333Z"/><path fill="#9CDDEE" fill-rule="evenodd" d="M14 8.66669L15.3334 11.3334H12.6667L14 8.66669Z" clip-rule="evenodd"/></g></svg>