<svg xmlns="http://www.w3.org/2000/svg" width="28" height="20" fill="none" viewBox="0 0 28 20"><rect width="27.5" height="19.5" x=".25" y=".25" fill="#fff" stroke="#F5F5F5" stroke-width=".5" rx="1.75"/><mask id="mask0" width="28" height="20" x="0" y="0" mask-type="alpha" maskUnits="userSpaceOnUse"><rect width="27.5" height="19.5" x=".25" y=".25" fill="#fff" stroke="#fff" stroke-width=".5" rx="1.75"/></mask><g mask="url(#mask0)"><path fill="#138E16" fill-rule="evenodd" d="M0 20H28V13.3333H0V20Z" clip-rule="evenodd"/><path fill="#ED2B35" fill-rule="evenodd" d="M0 20H9.33333V13.3333H28V6.66667H9.33333V0H0V20Z" clip-rule="evenodd"/><path fill="#fff" fill-rule="evenodd" d="M4.66667 4.71174L3.50964 6.40256L4.11019 4.44375L2.06686 4.59337L3.97275 3.8416L2.58178 2.33734L4.35785 3.35871L4.66667 1.33331L4.97549 3.35871L6.75155 2.33734L5.36058 3.8416L7.26647 4.59337L5.22314 4.44375L5.82369 6.40256L4.66667 4.71174Z" clip-rule="evenodd"/></g></svg>