<svg xmlns="http://www.w3.org/2000/svg" width="28" height="20" fill="none" viewBox="0 0 28 20"><rect width="28" height="20" fill="#fff" rx="2"/><mask id="mask0" width="28" height="20" x="0" y="0" mask-type="alpha" maskUnits="userSpaceOnUse"><rect width="28" height="20" fill="#fff" rx="2"/></mask><g mask="url(#mask0)"><g filter="url(#filter0_d)"><path fill="#2D754D" fill-rule="evenodd" d="M0 20H28V14.6667H0V20Z" clip-rule="evenodd"/></g><path fill="#25B1EB" fill-rule="evenodd" d="M0 9.33333H28V0H0V9.33333Z" clip-rule="evenodd"/><path fill="#FECB2F" fill-rule="evenodd" d="M0 14.6666H28V9.33331H0V14.6666Z" clip-rule="evenodd"/><path fill="#FECB2F" fill-rule="evenodd" d="M21.3333 6L20.3128 7.13035L20.3905 5.60948L18.8696 5.68716L20 4.66667L18.8696 3.64618L20.3905 3.72386L20.3128 2.20299L21.3333 3.33333L22.3538 2.20299L22.2761 3.72386L23.797 3.64618L22.6667 4.66667L23.797 5.68716L22.2761 5.60948L22.3538 7.13035L21.3333 6Z" clip-rule="evenodd"/></g><defs><filter id="filter0_d" width="28" height="5.333" x="0" y="14.667" color-interpolation-filters="sRGB" filterUnits="userSpaceOnUse"><feFlood flood-opacity="0" result="BackgroundImageFix"/><feColorMatrix in="SourceAlpha" type="matrix" values="0 0 0 0 0 0 0 0 0 0 0 0 0 0 0 0 0 0 127 0"/><feOffset/><feColorMatrix type="matrix" values="0 0 0 0 0 0 0 0 0 0 0 0 0 0 0 0 0 0 0.06 0"/><feBlend in2="BackgroundImageFix" mode="normal" result="effect1_dropShadow"/><feBlend in="SourceGraphic" in2="effect1_dropShadow" mode="normal" result="shape"/></filter></defs></svg>