<svg xmlns="http://www.w3.org/2000/svg" width="28" height="20" fill="none" viewBox="0 0 28 20"><rect width="27.5" height="19.5" x=".25" y=".25" fill="#fff" stroke="#F5F5F5" stroke-width=".5" rx="1.75"/><mask id="mask0" width="28" height="20" x="0" y="0" mask-type="alpha" maskUnits="userSpaceOnUse"><rect width="27.5" height="19.5" x=".25" y=".25" fill="#fff" stroke="#fff" stroke-width=".5" rx="1.75"/></mask><g mask="url(#mask0)"><path fill="#0C47B7" fill-rule="evenodd" d="M0 13.3333H28V6.66663H9.24398V5.33329C9.24398 5.33329 8.30367 4.66663 7.33333 4.66663C6.36299 4.66663 5.33333 5.33329 5.33333 5.33329V6.66663H0V13.3333ZM8.66667 7.99996C8.66667 8.73634 8.06971 9.33329 7.33333 9.33329C6.59695 9.33329 6 8.73634 6 7.99996C6 7.26358 6.59695 6.66663 7.33333 6.66663C8.06971 6.66663 8.66667 7.26358 8.66667 7.99996Z" clip-rule="evenodd"/><g filter="url(#filter0_d)"><path fill="#E53B35" fill-rule="evenodd" d="M0 20H28V13.3334H0V20Z" clip-rule="evenodd"/></g></g><defs><filter id="filter0_d" width="28" height="6.667" x="0" y="13.333" color-interpolation-filters="sRGB" filterUnits="userSpaceOnUse"><feFlood flood-opacity="0" result="BackgroundImageFix"/><feColorMatrix in="SourceAlpha" type="matrix" values="0 0 0 0 0 0 0 0 0 0 0 0 0 0 0 0 0 0 127 0"/><feOffset/><feColorMatrix type="matrix" values="0 0 0 0 0 0 0 0 0 0 0 0 0 0 0 0 0 0 0.06 0"/><feBlend in2="BackgroundImageFix" mode="normal" result="effect1_dropShadow"/><feBlend in="SourceGraphic" in2="effect1_dropShadow" mode="normal" result="shape"/></filter></defs></svg>