<svg xmlns="http://www.w3.org/2000/svg" width="28" height="20" fill="none" viewBox="0 0 28 20"><rect width="27.5" height="19.5" x=".25" y=".25" fill="#fff" stroke="#F5F5F5" stroke-width=".5" rx="1.75"/><mask id="mask0" width="28" height="20" x="0" y="0" mask-type="alpha" maskUnits="userSpaceOnUse"><rect width="27.5" height="19.5" x=".25" y=".25" fill="#fff" stroke="#fff" stroke-width=".5" rx="1.75"/></mask><g mask="url(#mask0)"><path fill="#1B57C4" fill-rule="evenodd" d="M0 6.66667H28V0H0V6.66667Z" clip-rule="evenodd"/><path fill="#1B57C4" fill-rule="evenodd" d="M0 20H28V13.3333H0V20Z" clip-rule="evenodd"/><path fill="url(#paint0_linear)" fill-rule="evenodd" d="M12.4 7.86652C11.7523 8.35303 11.3333 9.12759 11.3333 10C11.3333 11.4728 12.5273 12.6667 14 12.6667C15.4728 12.6667 16.6667 11.4728 16.6667 10C16.6667 9.12759 16.2477 8.35303 15.6001 7.86652L14.6667 10.6667H13.3333L12.4 7.86652Z" clip-rule="evenodd"/><path fill="#F9C92E" fill-rule="evenodd" d="M14 7.33334L14.6667 10.6667H13.3333L14 7.33334Z" clip-rule="evenodd"/></g><defs><linearGradient id="paint0_linear" x1="11.333" x2="11.333" y1="7.867" y2="12.667" gradientUnits="userSpaceOnUse"><stop stop-color="#3C7839"/><stop offset="1" stop-color="#31642E"/></linearGradient></defs></svg>