<svg xmlns="http://www.w3.org/2000/svg" width="28" height="20" fill="none" viewBox="0 0 28 20"><rect width="27.5" height="19.5" x=".25" y=".25" fill="#fff" stroke="#F5F5F5" stroke-width=".5" rx="1.75"/><mask id="mask0" width="28" height="20" x="0" y="0" mask-type="alpha" maskUnits="userSpaceOnUse"><rect width="27.5" height="19.5" x=".25" y=".25" fill="#fff" stroke="#fff" stroke-width=".5" rx="1.75"/></mask><g mask="url(#mask0)"><path fill="#262626" fill-rule="evenodd" d="M0 20H28V13.3334H0V20Z" clip-rule="evenodd"/><path fill="#E32139" fill-rule="evenodd" d="M0 6.66667H28V0H0V6.66667Z" clip-rule="evenodd"/><path fill="#128A49" fill-rule="evenodd" d="M9.33335 11.0934L7.76593 12.1574L8.29353 10.3379L6.7972 9.176L8.69071 9.11552L9.33335 7.33337L9.976 9.11552L11.8695 9.176L10.3732 10.3379L10.9008 12.1574L9.33335 11.0934Z" clip-rule="evenodd"/><path fill="#128A49" fill-rule="evenodd" d="M18.6667 11.0934L17.0992 12.1574L17.6268 10.3379L16.1305 9.176L18.024 9.11552L18.6667 7.33337L19.3093 9.11552L21.2028 9.176L19.7065 10.3379L20.2341 12.1574L18.6667 11.0934Z" clip-rule="evenodd"/></g></svg>