<svg xmlns="http://www.w3.org/2000/svg" width="28" height="20" fill="none" viewBox="0 0 28 20"><rect width="27.5" height="19.5" x=".25" y=".25" fill="#fff" stroke="#F5F5F5" stroke-width=".5" rx="1.75"/><mask id="mask0" width="28" height="20" x="0" y="0" mask-type="alpha" maskUnits="userSpaceOnUse"><rect width="27.5" height="19.5" x=".25" y=".25" fill="#fff" stroke="#fff" stroke-width=".5" rx="1.75"/></mask><g mask="url(#mask0)"><path fill="#E20F1B" fill-rule="evenodd" d="M28 0H16V10.6667H0V20H28V0Z" clip-rule="evenodd"/><path fill="url(#paint0_linear)" fill-rule="evenodd" d="M7 1.33337C6.81591 1.33337 6.66667 1.48261 6.66667 1.66671V4.00004H4.33333C4.14924 4.00004 4 4.14928 4 4.33337V6.33337C4 6.51747 4.14924 6.66671 4.33333 6.66671H6.66667V9.00004C6.66667 9.18414 6.81591 9.33337 7 9.33337H9C9.18409 9.33337 9.33333 9.18414 9.33333 9.00004V6.66671H11.6667C11.8508 6.66671 12 6.51747 12 6.33337V4.33337C12 4.14928 11.8508 4.00004 11.6667 4.00004H9.33333V1.66671C9.33333 1.48261 9.18409 1.33337 9 1.33337H7Z" clip-rule="evenodd"/></g><defs><linearGradient id="paint0_linear" x1="4" x2="4" y1="1.333" y2="9.333" gradientUnits="userSpaceOnUse"><stop stop-color="#DF101B"/><stop offset="1" stop-color="#C00711"/></linearGradient></defs></svg>