<svg xmlns="http://www.w3.org/2000/svg" width="28" height="20" fill="none" viewBox="0 0 28 20"><rect width="28" height="20" fill="#fff" rx="2"/><mask id="mask0" width="28" height="20" x="0" y="0" mask-type="alpha" maskUnits="userSpaceOnUse"><rect width="28" height="20" fill="#fff" rx="2"/></mask><g mask="url(#mask0)"><path fill="#369D0C" fill-rule="evenodd" d="M0 2.66667H28V0H0V2.66667Z" clip-rule="evenodd"/><path fill="#369D0C" fill-rule="evenodd" d="M0 20H28V17.3334H0V20Z" clip-rule="evenodd"/><path fill="#369D0C" fill-rule="evenodd" d="M0 8.00004H28V5.33337H0V8.00004Z" clip-rule="evenodd"/><path fill="#369D0C" fill-rule="evenodd" d="M0 14.6667H28V12H0V14.6667Z" clip-rule="evenodd"/><path fill="#262626" fill-rule="evenodd" d="M0 12H28V8H0V12Z" clip-rule="evenodd"/><path fill="#FFD40E" fill-rule="evenodd" d="M0 5.33329H28V2.66663H0V5.33329Z" clip-rule="evenodd"/><path fill="#FFD40E" fill-rule="evenodd" d="M0 17.3333H28V14.6666H0V17.3333Z" clip-rule="evenodd"/><path fill="#fff" stroke="#262626" stroke-width="1.333" d="M-0.666677 19.3333V0.666667H-0.222232L12.2222 10L-0.222233 19.3333H-0.666677Z"/><path fill="url(#paint0_linear)" fill-rule="evenodd" d="M3.99999 11.3L2.04071 12.6967L2.76362 10.4017L0.829801 8.9699L3.23587 8.94824L3.99999 6.66663L4.76411 8.94824L7.17018 8.9699L5.23636 10.4017L5.95927 12.6967L3.99999 11.3Z" clip-rule="evenodd"/></g><defs><linearGradient id="paint0_linear" x1=".667" x2=".667" y1="6.667" y2="13.333" gradientUnits="userSpaceOnUse"><stop stop-color="#F12F1F"/><stop offset="1" stop-color="#DE2010"/></linearGradient></defs></svg>